<svg width="45" height="45" viewBox="0 0 45 45" fill="none" xmlns="http://www.w3.org/2000/svg">
<path d="M1 22.1235C1 33.7604 10.6131 43.3735 22.25 43.3735C33.8869 43.3735 43.5 33.7604 43.5 22.1235C43.5 10.4866 33.8869 1 22.25 1C10.6131 1 1 10.4866 1 22.1235Z" stroke="white" stroke-width="1.5" stroke-linejoin="round"/>
<path d="M17.1943 12.387L17.1943 12.387C17.438 12.6341 17.6306 12.9267 17.7612 13.2483C17.8916 13.5694 17.9576 13.913 17.9553 14.2596V14.3283V14.3379L17.9552 14.3379C17.9469 14.6849 17.8703 15.027 17.7297 15.3444M17.1943 12.387L17.7297 15.3444M17.1943 12.387C16.9506 12.1399 16.6607 11.9432 16.341 11.8082L17.1943 12.387ZM17.7297 15.3444L17.3652 15.183L17.7297 15.3444C17.7297 15.3444 17.7297 15.3444 17.7297 15.3444ZM15.3311 11.6L15.331 11.6C15.6781 11.6024 16.0212 11.6731 16.341 11.8082L15.3311 11.6ZM15.3311 11.6H15.3283M15.3311 11.6H15.3283M15.3283 11.6H15.2582C14.5532 11.6 13.8771 11.8801 13.3786 12.3786L13.3786 12.3786M15.3283 11.6L13.3786 12.3786M13.3786 12.3786C12.8801 12.8771 12.6 13.5532 12.6 14.2582C12.6 14.9632 12.8801 15.6393 13.3786 16.1378L13.3786 16.1378M13.3786 12.3786L13.3786 16.1378M13.3786 16.1378C13.8759 16.6352 14.5501 16.9151 15.2533 16.9164C15.5987 16.9243 15.9423 16.8643 16.2647 16.7399L16.2647 16.7399M13.3786 16.1378L16.2647 16.7399M16.2647 16.7399C16.5885 16.6149 16.8846 16.4274 17.136 16.1879L16.2647 16.7399ZM17.6049 18.541C17.6049 18.3201 17.4258 18.141 17.2049 18.141H13.3115C13.0906 18.141 12.9115 18.3201 12.9115 18.541V31C12.9115 31.2209 13.0906 31.4 13.3115 31.4H17.2049C17.4258 31.4 17.6049 31.2209 17.6049 31V18.541ZM32.4 23.4328V23.4312C32.4 21.4692 31.7729 20.0549 30.7857 19.1334C29.8073 18.2202 28.5188 17.8316 27.26 17.8295C26.4185 17.7891 25.5808 17.9692 24.8302 18.352C24.3739 18.5846 23.9594 18.8872 23.6009 19.247V18.541C23.6009 18.3201 23.4218 18.141 23.2009 18.141H19.541C19.3201 18.141 19.141 18.3201 19.141 18.541V31C19.141 31.2209 19.3201 31.4 19.541 31.4H23.4344C23.6553 31.4 23.8344 31.2209 23.8344 31V24.3734C23.8344 24.3623 23.834 24.3513 23.8331 24.3403C23.7855 23.7667 23.9662 23.1974 24.336 22.7562C24.7018 22.3195 25.2237 22.0432 25.7899 21.9857H25.9184C26.4511 21.9857 26.8687 22.1502 27.16 22.4835C27.4584 22.825 27.6754 23.4018 27.6754 24.3266V31C27.6754 31.2209 27.8545 31.4 28.0754 31.4H31.9689C32.1892 31.4 32.368 31.2219 32.3689 31.0016L32.4 23.4328Z" stroke="white" stroke-width="0.8" stroke-linejoin="round"/>
</svg>
