<svg width="44" height="44" viewBox="0 0 44 44" fill="none" xmlns="http://www.w3.org/2000/svg">
<circle cx="22" cy="22" r="21" stroke="white" stroke-width="1.5"/>
<path fill-rule="evenodd" clip-rule="evenodd" d="M21.7583 23.5869C21.0336 23.5869 20.311 23.3474 19.7065 22.8686L14.8477 18.9513C14.4978 18.6696 14.4436 18.1572 14.7242 17.8084C15.007 17.4606 15.5183 17.4054 15.8671 17.686L20.7216 21.5989C21.3315 22.0821 22.1906 22.0821 22.8048 21.5946L27.6105 17.6881C27.9593 17.4032 28.4706 17.4574 28.7545 17.8062C29.0372 18.154 28.9841 18.6653 28.6364 18.9491L23.8221 22.8621C23.2132 23.3453 22.4852 23.5869 21.7583 23.5869" fill="white"/>
<mask id="mask0_46_68" style="mask-type:alpha" maskUnits="userSpaceOnUse" x="10" y="11" width="24" height="22">
<path fill-rule="evenodd" clip-rule="evenodd" d="M10.0833 11.1667H33.3749V32.2917H10.0833V11.1667Z" fill="white"/>
</mask>
<g mask="url(#mask0_46_68)">
<path fill-rule="evenodd" clip-rule="evenodd" d="M16.4088 30.6667H27.0471C27.0493 30.6645 27.058 30.6667 27.0645 30.6667C28.3006 30.6667 29.3969 30.2247 30.2376 29.3851C31.2136 28.4134 31.7499 27.0169 31.7499 25.4537V18.0134C31.7499 14.9876 29.7717 12.7917 27.0471 12.7917H16.411C13.6864 12.7917 11.7082 14.9876 11.7082 18.0134V25.4537C11.7082 27.0169 12.2456 28.4134 13.2206 29.3851C14.0612 30.2247 15.1586 30.6667 16.3936 30.6667H16.4088ZM16.3904 32.2917C14.7188 32.2917 13.226 31.685 12.0733 30.5367C10.7896 29.2562 10.0832 27.4514 10.0832 25.4537V18.0134C10.0832 14.1101 12.8035 11.1667 16.411 11.1667H27.0471C30.6546 11.1667 33.3749 14.1101 33.3749 18.0134V25.4537C33.3749 27.4514 32.6686 29.2562 31.3848 30.5367C30.2332 31.6839 28.7393 32.2917 27.0645 32.2917H27.0471H16.411H16.3904Z" fill="white"/>
</g>
</svg>
