<svg width="33" height="33" viewBox="0 0 33 33" fill="none" xmlns="http://www.w3.org/2000/svg">
<path d="M18.1249 16.554C18.1249 21.2176 14.3701 24.9983 9.73815 24.9983C5.10622 24.9983 1.35168 21.2187 1.35168 16.554C1.35168 11.8893 5.1065 8.11002 9.73815 8.11002C14.3698 8.11002 18.1249 11.8905 18.1249 16.554ZM27.3253 16.554C27.3253 20.9442 25.4477 24.5028 23.1319 24.5028C20.8161 24.5028 18.9385 20.943 18.9385 16.554C18.9385 12.165 20.8161 8.60525 23.1319 8.60525C25.4477 8.60525 27.3253 12.165 27.3253 16.554ZM31.0884 16.554C31.0884 20.4874 30.4279 23.6758 29.6135 23.6758C28.799 23.6758 28.1386 20.4862 28.1386 16.554C28.1386 12.6218 28.799 9.43225 29.6138 9.43225C30.4285 9.43225 31.0884 12.6209 31.0884 16.554Z" stroke="white" stroke-linejoin="round"/>
</svg>
