<svg width="45" height="45" viewBox="0 0 45 45" fill="none" xmlns="http://www.w3.org/2000/svg">
<path d="M1.24365 22.3735C1.24365 34.0104 10.8567 43.6235 22.4937 43.6235C34.1306 43.6235 43.7437 34.0104 43.7437 22.3735C43.7437 10.7366 34.1306 1.25 22.4937 1.25C10.8567 1.25 1.24365 10.7366 1.24365 22.3735Z" stroke="white" stroke-width="1.5" stroke-linejoin="round"/>
<path d="M14.021 29.1505C19.8645 27.8338 24.9021 28.4416 28.8313 30.8724C29.9396 31.4801 31.0479 29.7583 29.9396 29.0493C25.5066 26.3146 20.066 25.6056 13.618 27.1248C12.409 27.3274 12.6105 29.3531 14.021 29.1505Z" stroke="white" stroke-width="0.795534" stroke-linejoin="round"/>
<path d="M13.7187 24.2889C19.0585 22.6683 26.0103 23.4786 30.5441 26.3146C31.9546 27.2261 33.3651 24.9979 31.9546 24.0863C26.7156 20.8452 19.1593 19.9336 13.0135 21.7567C11.4015 22.1619 12.006 24.7953 13.7187 24.2889Z" stroke="white" stroke-width="0.795534" stroke-linejoin="round"/>
<path d="M12.006 16.0848C10.0917 16.7938 11.2 19.731 12.9127 19.1233C18.051 17.5028 27.1186 17.8066 32.5591 21.0477C34.3726 22.0606 35.9846 19.2246 34.2719 18.3131C28.0253 14.5655 17.9503 14.2617 12.006 16.0848Z" stroke="white" stroke-width="0.795534" stroke-linejoin="round"/>
</svg>
