<svg width="44" height="44" viewBox="0 0 44 44" fill="none" xmlns="http://www.w3.org/2000/svg">
<circle cx="22" cy="22" r="21" stroke="white" stroke-width="1.5"/>
<path fill-rule="evenodd" clip-rule="evenodd" d="M13.2887 14.0879L13.3613 14.012C15.2887 12.0844 16.5438 11.5735 17.8831 12.3436C18.2683 12.5651 18.6295 12.8752 19.1205 13.374L20.6269 14.936C21.4589 15.8439 21.6481 16.7148 21.3772 17.7347L21.3398 17.8697L21.2984 18.0039L21.097 18.5947C20.666 19.9197 20.846 20.6673 22.3795 22.2004C23.9742 23.7947 24.7186 23.9251 26.1457 23.4264L26.4001 23.338L26.7077 23.2381L26.8423 23.2007C27.9263 22.9115 28.842 23.1423 29.8132 24.1128L31.0269 25.2852L31.3842 25.6366C31.7803 26.0405 32.0421 26.3606 32.2355 26.6989C33.0008 28.0377 32.4893 29.2921 30.5063 31.2677L30.3177 31.4589C30.0216 31.7442 29.745 31.9486 29.3386 32.1416C28.6565 32.4655 27.8506 32.5876 26.9142 32.4573C24.6067 32.1364 21.6802 30.3158 17.9719 26.6085C17.67 26.3067 17.3809 26.0107 17.1042 25.7205L16.5675 25.1476C11.5376 19.6828 11.0939 16.3259 13.1552 14.2205L13.2887 14.0879ZM17.9064 14.2809C17.5806 13.9597 17.344 13.7639 17.1353 13.644C16.6738 13.3786 16.1755 13.4907 15.2533 14.2845L14.9635 14.5433C14.913 14.59 14.8613 14.6384 14.8084 14.6887L14.4761 15.0123L14.4462 15.0497L14.2209 15.276C13.6766 15.832 13.4187 16.5106 13.6409 17.6777C14.0055 19.5927 15.6744 22.1905 19.0324 25.5477C22.5313 29.0456 25.1972 30.7041 27.1208 30.9716C28.2422 31.1276 28.8142 30.856 29.3975 30.2584L29.8424 29.8095C30.051 29.5912 30.2292 29.3933 30.3797 29.2126L30.585 28.9539C31.1097 28.2551 31.1576 27.8358 30.9332 27.4433C30.8479 27.2939 30.7237 27.1302 30.5429 26.93L30.2977 26.671L30.1525 26.5258L28.6213 25.0472C28.1096 24.5753 27.7599 24.5084 27.229 24.65L27.0757 24.6941L26.4414 24.9094C24.6013 25.5037 23.2738 25.2155 21.3189 23.2612C19.2943 21.237 19.0568 19.8854 19.7352 17.9392L19.7787 17.8141L19.8991 17.4515L19.9582 17.2204C20.0631 16.7175 19.9434 16.3668 19.4027 15.826C19.3804 15.8037 19.3555 15.7787 19.3285 15.7512L17.9064 14.2809Z" fill="white"/>
</svg>
