<svg width="29" height="29" viewBox="0 0 29 29" fill="none" xmlns="http://www.w3.org/2000/svg">
<path fill-rule="evenodd" clip-rule="evenodd" d="M28.4096 14.22C28.4096 21.6843 22.3586 27.7353 14.8943 27.7353C7.43003 27.7353 1.37903 21.6843 1.37903 14.22C1.37903 6.75571 7.43003 0.704712 14.8943 0.704712C22.3586 0.704712 28.4096 6.75571 28.4096 14.22ZM15.3786 10.6823C14.0641 11.2291 11.4368 12.3607 7.49681 14.0773C6.85702 14.3318 6.52187 14.5807 6.49136 14.824C6.4398 15.2353 6.95487 15.3973 7.65628 15.6179C7.75168 15.6479 7.85053 15.6789 7.95188 15.7119C8.64194 15.9362 9.57021 16.1986 10.0528 16.209C10.4905 16.2185 10.9791 16.038 11.5185 15.6677C15.1997 13.1827 17.1 11.9267 17.2193 11.8996C17.3034 11.8805 17.4201 11.8565 17.4991 11.9267C17.5781 11.997 17.5704 12.13 17.562 12.1657C17.511 12.3832 15.4891 14.2629 14.4428 15.2357C14.1166 15.5389 13.8852 15.754 13.8379 15.8031C13.732 15.9132 13.624 16.0173 13.5202 16.1173C12.8791 16.7353 12.3984 17.1988 13.5468 17.9556C14.0987 18.3193 14.5404 18.6201 14.981 18.9201C15.4621 19.2478 15.9421 19.5746 16.563 19.9817C16.7212 20.0854 16.8723 20.1931 17.0195 20.298C17.5794 20.6972 18.0825 21.0558 18.704 20.9986C19.0652 20.9654 19.4382 20.6258 19.6277 19.613C20.0754 17.2194 20.9555 12.0333 21.1589 9.8962C21.1767 9.70897 21.1543 9.46934 21.1363 9.36415C21.1183 9.25896 21.0807 9.10909 20.9439 8.99814C20.782 8.86675 20.532 8.83904 20.4202 8.84091C19.9119 8.84996 19.132 9.12115 15.3786 10.6823Z" stroke="white" stroke-linejoin="round"/>
</svg>
