<svg width="29" height="29" viewBox="0 0 29 29" fill="none" xmlns="http://www.w3.org/2000/svg">
<path fill-rule="evenodd" clip-rule="evenodd" d="M11.6038 8.79375C11.3586 8.23477 11.0863 8.22119 10.8547 8.22119C10.6503 8.20762 10.4315 8.20762 10.1999 8.20762C9.98272 8.20762 9.61459 8.28907 9.30156 8.63005C8.98774 8.97022 8.13011 9.77435 8.13011 11.4225C8.13011 13.0715 9.32871 14.6654 9.49242 14.8834C9.65532 15.1014 11.8082 18.5886 15.2148 19.9382C18.048 21.0553 18.6205 20.8373 19.2338 20.7686C19.8463 20.7008 21.2094 19.9653 21.4953 19.1748C21.7676 18.3986 21.7676 17.7174 21.6861 17.5809C21.6047 17.4451 21.3723 17.3629 21.0457 17.1856C20.7047 17.0227 19.0701 16.205 18.7571 16.0956C18.4432 15.987 18.2252 15.9327 18.0072 16.2593C17.7892 16.6003 17.1488 17.3493 16.9452 17.5673C16.7535 17.7853 16.5499 17.8125 16.2225 17.6488C15.8823 17.4859 14.8059 17.1313 13.525 15.987C12.5301 15.1006 11.8625 13.9978 11.6581 13.6712C11.468 13.3303 11.6309 13.153 11.8082 12.9893C11.9583 12.8399 12.1492 12.5948 12.3129 12.4039C12.4758 12.2123 12.5301 12.063 12.653 11.845C12.7616 11.627 12.7073 11.4225 12.6259 11.2596C12.5436 11.1095 11.904 9.46133 11.6038 8.79375Z" stroke="white" stroke-linejoin="round"/>
</svg>
